<svg width="40" height="41" viewBox="0 0 40 41" fill="none" xmlns="http://www.w3.org/2000/svg">
<rect y="0.0629883" width="40" height="40" rx="4" fill="#DCDFFF"/>
<path d="M20.9954 19.0624L21.002 12.9938C21.002 12.7277 20.8963 12.4726 20.7081 12.2844C20.52 12.0963 20.2648 11.9906 19.9988 11.9905C19.7327 11.9905 19.4775 12.0962 19.2894 12.2843C19.1013 12.4724 18.9956 12.7276 18.9956 12.9937L19.0031 19.0623L12.9345 19.0548C12.6684 19.0548 12.4133 19.1604 12.2252 19.3486C12.037 19.5367 11.9314 19.7918 11.9314 20.0579C11.9314 20.324 12.0371 20.5791 12.2253 20.7673C12.4134 20.9554 12.6686 21.0612 12.9347 21.0612L19.0033 21.0545L18.9966 27.1232C18.9961 27.255 19.0217 27.3857 19.0719 27.5077C19.1222 27.6297 19.196 27.7405 19.2893 27.8337C19.3826 27.927 19.4934 28.0009 19.6154 28.0511C19.7373 28.1014 19.868 28.1269 19.9999 28.1264C20.1318 28.127 20.2625 28.1014 20.3844 28.0512C20.5064 28.001 20.6172 27.9271 20.7105 27.8338C20.8037 27.7406 20.8776 27.6298 20.9278 27.5078C20.978 27.3859 21.0036 27.2552 21.003 27.1233L20.9955 21.0547L27.0641 21.0622C27.196 21.0627 27.3267 21.0372 27.4487 20.9869C27.5706 20.9367 27.6814 20.8629 27.7747 20.7696C27.8679 20.6763 27.9418 20.5655 27.992 20.4436C28.0422 20.3216 28.0678 20.1909 28.0673 20.0591C28.0678 19.9272 28.0422 19.7965 27.992 19.6745C27.9417 19.5525 27.8679 19.4417 27.7746 19.3485C27.6813 19.2552 27.5705 19.1813 27.4486 19.1311C27.3266 19.0808 27.1959 19.0553 27.064 19.0558L20.9954 19.0624Z" fill="#1D1E25"/>
</svg>
